<?xml version="1.0" encoding="UTF-8" standalone="no"?>
<!-- Created with Inkscape (http://www.inkscape.org/) -->

<svg
   width="121.79977"
   height="112.87337"
   viewBox="0 0 121.79977 112.87338"
   version="1.1"
   id="svg5"
   inkscape:version="1.1.1 (3bf5ae0d25, 2021-09-20)"
   sodipodi:docname="favicon.svg"
   xmlns:inkscape="http://www.inkscape.org/namespaces/inkscape"
   xmlns:sodipodi="http://sodipodi.sourceforge.net/DTD/sodipodi-0.dtd"
   xmlns="http://www.w3.org/2000/svg"
   xmlns:svg="http://www.w3.org/2000/svg">
  <sodipodi:namedview
     id="namedview7"
     pagecolor="#ffffff"
     bordercolor="#666666"
     borderopacity="1.0"
     inkscape:pageshadow="2"
     inkscape:pageopacity="0.0"
     inkscape:pagecheckerboard="0"
     inkscape:document-units="px"
     showgrid="false"
     inkscape:zoom="0.28240741"
     inkscape:cx="-129.2459"
     inkscape:cy="-377.11475"
     inkscape:window-width="1600"
     inkscape:window-height="837"
     inkscape:window-x="-8"
     inkscape:window-y="-8"
     inkscape:window-maximized="1"
     inkscape:current-layer="layer1" />
  <defs
     id="defs2" />
  <g
     inkscape:label="Layer 1"
     inkscape:groupmode="layer"
     id="layer1"
     transform="translate(-2007.2412,-1130.2507)">
    <path
       style="fill:#002651;fill-opacity:1;stroke:none;stroke-width:0.426903;stroke-linecap:butt;stroke-linejoin:miter;stroke-miterlimit:4;stroke-dasharray:none;stroke-opacity:1"
       d="m 2027.5896,1191.8822 25.8779,30.1096 c 45.9569,-19.2172 78.3792,-45.5869 75.3815,-90.6747 -65.809,-8.1033 -77.3198,31.7156 -101.2594,60.5651 z"
       id="path869"
       sodipodi:nodetypes="cccc" />
    <path
       style="fill:#ffffff;stroke:none;stroke-width:0.0871231px;stroke-linecap:butt;stroke-linejoin:miter;stroke-opacity:1"
       d="m 2031.1379,1203.639 c 5.2836,2.2543 9.3893,7.6289 11.2328,13.0695 0.8746,2.5815 1.6175,6.5249 -0.4624,8.1637 -10.0244,8.6256 -20.3419,7.3007 -30.5822,8.5942 1.5148,-8.3051 3.9066,-23.325 12.6667,-29.4394 1.9559,-1.3651 4.9513,-1.3241 7.1451,-0.388 z"
       id="path4180"
       sodipodi:nodetypes="aaccaa" />
    <path
       style="fill:#ff304f;fill-opacity:1;stroke:#00ffff;stroke-width:0.0871231px;stroke-linecap:butt;stroke-linejoin:miter;stroke-opacity:1"
       d="m 2090.4727,1202.4303 c -4.2868,10.5458 -7.7895,15.9805 -11.2816,21.3454 -11.1683,9.6282 -20.3748,13.74 -30.0712,19.2291 5.1677,-8.6166 10.8652,-17.085 14.1262,-26.2352 10.808,-5.4145 18.5825,-9.7176 27.2266,-14.3393 z"
       id="path1818-6"
       sodipodi:nodetypes="ccccc" />
    <path
       style="fill:#ff304f;fill-opacity:1;stroke:none;stroke-width:0.0871231px;stroke-linecap:butt;stroke-linejoin:miter;stroke-opacity:1"
       d="m 2094.4231,1131.9249 c 5.116,12.2095 13.0266,23.769 28.7927,33.5011 3.8109,-7.654 6.221,-18.0006 5.6332,-34.1089 -24.2254,-2.2479 -26.8521,-0.3447 -34.4259,0.6078 z"
       id="path1249"
       sodipodi:nodetypes="cccc" />
    <circle
       style="fill:#28c7fa;fill-opacity:1;stroke:none;stroke-width:0.540549;stroke-linecap:round;stroke-miterlimit:4;stroke-dasharray:none;stroke-opacity:1"
       id="path1703"
       cx="2245.6511"
       cy="-821.4704"
       r="13.358641"
       transform="rotate(49.322385)" />
    <path
       style="fill:#ff304f;fill-opacity:1;stroke:none;stroke-width:0.0871231px;stroke-linecap:butt;stroke-linejoin:miter;stroke-opacity:1"
       d="m 2053.5705,1157.1842 c -11.0703,2.6529 -16.9698,5.299 -22.7987,7.945 -11.1975,9.5942 -16.6464,18.0781 -23.5306,26.8392 9.2955,-3.8138 18.5241,-8.1737 28.0605,-10.0223 6.9775,-9.8713 12.4003,-16.9107 18.2688,-24.7619 z"
       id="path1818"
       sodipodi:nodetypes="ccccc" />
    <path
       style="fill:#28c7fa;fill-opacity:1;stroke:none;stroke-width:0.0871231px;stroke-linecap:butt;stroke-linejoin:miter;stroke-opacity:1"
       d="m 2030.9471,1195.7561 c -1.9209,1.9839 -2.064,3.36 -1.0235,4.3313 l 15.4272,17.95 c 1.7996,2.1521 3.0431,2.319 4.7915,0.053 z"
       id="path2309"
       sodipodi:nodetypes="ccccc" />
  </g>
</svg>
